<?xml version="1.0" encoding="utf-8"?>
<!-- Generator: Adobe Illustrator 21.0.0, SVG Export Plug-In . SVG Version: 6.00 Build 0)  -->
<svg version="1.1" id="Layer_1" xmlns="http://www.w3.org/2000/svg" xmlns:xlink="http://www.w3.org/1999/xlink" x="0px" y="0px"
	 viewBox="0 0 256 256" enable-background="new 0 0 256 256" xml:space="preserve">
<circle fill="none" stroke="#000000" stroke-width="6" stroke-miterlimit="10" cx="51.1" cy="83.1" r="14.6"/>
<circle fill="none" stroke="#000000" stroke-width="6" stroke-miterlimit="10" cx="204.4" cy="81.2" r="14.6"/>
<circle fill="none" stroke="#000000" stroke-width="6" stroke-miterlimit="10" cx="128.7" cy="26.8" r="14.6"/>
<ellipse transform="matrix(4.541512e-03 -1 1 4.541512e-03 32.6846 376.6466)" fill="none" stroke="#000000" stroke-width="6" stroke-miterlimit="10" cx="205.5" cy="171.9" rx="14.6" ry="14.6"/>
<ellipse transform="matrix(4.541512e-03 -1 1 4.541512e-03 -122.8391 226.1867)" fill="none" stroke="#000000" stroke-width="6" stroke-miterlimit="10" cx="52.2" cy="174.8" rx="14.6" ry="14.6"/>
<ellipse transform="matrix(4.541512e-03 -1 1 4.541512e-03 -100.7006 354.224)" fill="none" stroke="#000000" stroke-width="6" stroke-miterlimit="10" cx="127.6" cy="227.7" rx="14.6" ry="14.6"/>
<line fill="none" stroke="#000000" stroke-width="6" stroke-miterlimit="10" x1="56.9" y1="69.5" x2="113.2" y2="26.8"/>
<line fill="none" stroke="#000000" stroke-width="6" stroke-miterlimit="10" x1="64.6" y1="83.1" x2="120.9" y2="38.5"/>
<line fill="none" stroke="#000000" stroke-width="6" stroke-miterlimit="10" x1="45.2" y1="162.7" x2="41.9" y2="94.3"/>
<line fill="none" stroke="#000000" stroke-width="6" stroke-miterlimit="10" x1="62.7" y1="164.6" x2="55.7" y2="96.1"/>
<line fill="none" stroke="#000000" stroke-width="6" stroke-miterlimit="10" x1="134.5" y1="215.1" x2="190.8" y2="172.4"/>
<line fill="none" stroke="#000000" stroke-width="6" stroke-miterlimit="10" x1="142.3" y1="228.7" x2="198.6" y2="184"/>
<polygon fill="none" stroke="#000000" stroke-width="6" stroke-miterlimit="10" points="169.7,143.3 130.2,164.6 90.2,144.1 
	89.6,102.4 129.1,81.1 169.1,101.6 "/>
</svg>
